<svg width="996" height="499" viewBox="0 0 996 499" fill="none" xmlns="http://www.w3.org/2000/svg">
<path d="M647.629 242.992L641.401 231.365V231.227H635.172L644.031 246.729V258.356H649.567V246.729L658.426 231.227H653.72L647.629 242.992Z" fill="white"/>
<path d="M622.166 265.139H616.629V292.269H622.166V265.139Z" fill="white"/>
<path d="M932.219 296.973C926.267 298.218 919.347 298.911 911.457 298.911H881.835V246.727H927.79V236.207H881.835V190.53H910.488C918.516 190.53 925.299 191.222 931.25 192.467L932.911 192.744V180.01H860.242V309.43H933.88V296.696L932.219 296.973Z" fill="white"/>
<path d="M660.507 268.461C662.03 268.461 663.275 268.599 664.521 268.876L665.628 269.014V265.139H649.434V292.269H665.767V288.254L664.66 288.531C663.552 288.808 662.168 288.808 660.645 288.808H654.97V279.673H664.521V276.351H654.97V268.461H660.507Z" fill="white"/>
<path d="M627.704 244.793C627.704 235.934 624.244 230.812 618.43 230.812C612.617 230.812 609.156 235.934 609.156 244.793C609.156 253.651 612.617 258.773 618.43 258.773C624.244 258.773 627.704 253.651 627.704 244.793ZM618.43 255.174C616.077 255.174 614.693 251.437 614.693 244.793C614.693 240.917 615.247 234.273 618.43 234.273C621.614 234.273 622.168 240.917 622.168 244.793C622.168 251.437 620.783 255.174 618.43 255.174Z" fill="white"/>
<path d="M612.746 292.408V265.14H608.178L608.317 266.247C608.594 267.493 608.732 268.877 608.732 270.262L609.009 283.134L593.091 265.002L592.952 264.863H590.461V292.27H595.167L594.89 291.024C594.613 290.055 594.475 288.81 594.475 287.564L594.198 274.553L610.255 292.408H612.746Z" fill="white"/>
<path d="M707.566 284.103C707.566 279.951 704.936 277.182 699.814 275.798C696.354 274.968 694.831 273.583 694.831 271.507C694.831 269.569 696.354 268.185 698.707 268.185C701.475 268.185 703.967 270.538 706.458 274.552V267.355C703.829 265.417 700.922 264.725 698.569 264.725C693.17 264.725 689.433 267.908 689.433 272.614C689.433 276.767 692.34 279.812 697.461 281.058C700.783 281.888 702.168 283.273 702.168 285.349C702.168 287.702 700.507 289.086 698.015 289.086C695.247 289.086 692.755 287.564 689.156 282.857V289.778C691.786 291.854 694.831 292.685 697.738 292.685C703.69 292.685 707.566 289.225 707.566 284.103Z" fill="white"/>
<path d="M667.562 292.269H673.099V281.472H673.376L683.342 292.269H690.125L681.404 283.133C680.574 282.302 680.02 281.61 679.051 280.78V280.641C683.757 280.088 686.941 276.766 686.941 272.752C686.941 268.184 683.065 265.139 677.113 265.139H667.562V292.269ZM673.099 268.461H675.175C679.19 268.461 681.266 269.983 681.266 272.89C681.266 274.274 680.712 277.735 675.175 277.735H673.099V268.461Z" fill="white"/>
<path d="M722.242 238.84C722.242 234.272 718.366 231.227 712.414 231.227H702.863V258.356H708.4V247.56H708.677L718.643 258.356H725.425L716.705 249.221C715.875 248.39 715.321 247.698 714.352 246.868V246.729C719.058 246.176 722.242 242.854 722.242 238.84ZM710.476 243.823H708.4V234.549H710.476C714.49 234.549 716.567 236.071 716.567 238.978C716.567 240.362 716.013 243.823 710.476 243.823Z" fill="white"/>
<path d="M673.383 145.96C672.691 143.607 672.552 140.423 672.414 137.378L671.86 104.296L711.309 148.452L711.448 148.728H716.846V83.1184H706.88L707.295 85.1946C707.849 88.5167 707.987 91.9771 708.126 95.1607L708.679 127.827L669.23 82.7031H663.832V148.313H673.937L673.383 145.96Z" fill="white"/>
<path d="M681.407 257.664C681.683 256.141 682.099 255.034 682.514 253.927L684.452 249.636H692.618L696.356 258.356H702.169L690.404 230.949H688.189L676.285 258.356H681.268L681.407 257.664ZM688.189 239.808H688.743C689.02 241.054 690.404 244.237 691.234 246.314H685.698C686.528 244.099 687.912 241.054 688.189 239.808Z" fill="white"/>
<path d="M637.119 292.269L648.33 265.554L648.607 265.139H643.763L643.624 265.831C643.347 266.8 642.794 268.738 642.378 269.845L636.565 284.102L628.952 265.139H623L634.489 292.269H637.119Z" fill="white"/>
<path d="M675.868 254.342L674.761 254.619C673.654 254.896 672.27 255.034 670.747 255.034H665.072V245.899H674.623V242.438H665.072V234.549H670.609C672.131 234.549 673.377 234.687 674.623 234.964L675.73 235.241V231.227H659.535V258.356H675.868V254.342Z" fill="white"/>
<path d="M679.474 409.785H679.612C700.513 393.175 707.296 383.901 707.296 371.443C707.296 358.294 698.576 350.127 684.319 350.127C676.844 350.127 669.508 352.895 664.248 357.602L663.556 358.155V376.288L666.878 370.89C671.999 362.446 677.951 358.017 684.042 358.017C690.547 358.017 693.731 362.308 693.731 370.89C693.731 380.025 690.547 387.223 671.446 406.325L659.957 417.536V422.243H707.573V411.446H677.536L679.474 409.785Z" fill="white"/>
<path d="M633.105 350.127C618.017 350.127 609.297 363.415 609.297 386.669C609.297 409.923 618.017 423.212 633.105 423.212C648.192 423.212 657.051 409.923 657.051 386.669C657.051 363.415 648.331 350.127 633.105 350.127ZM633.105 415.183C630.06 415.183 622.723 412.415 622.723 386.669C622.723 363 628.399 358.017 633.105 358.017C637.811 358.017 643.763 363 643.763 386.669C643.763 410.339 637.119 415.183 633.105 415.183Z" fill="white"/>
<path d="M610.674 145.96C609.982 143.607 609.982 140.423 609.844 137.378L609.152 104.296L648.601 148.452L648.877 148.728H654.137V83.1184H644.171L644.586 85.1946C645.279 88.5167 645.417 91.9771 645.555 95.1607L646.109 127.827L606.522 82.7031H601.262V148.313H611.366L610.674 145.96Z" fill="white"/>
<path d="M567.628 387.915C594.343 366.737 602.786 354.972 602.786 339.469C602.786 322.997 591.851 312.893 574.272 312.893C564.86 312.893 555.586 316.353 548.942 322.305L548.388 322.72V343.344L551.295 338.361C558.077 327.426 565.829 321.751 573.857 321.751C584.653 321.751 586.868 330.887 586.868 338.638C586.868 350.404 582.716 359.816 558.077 384.316L543.959 398.296L543.82 398.435V403.418H603.201V390.96H563.614L567.628 387.915Z" fill="white"/>
<path d="M546.038 283.55H554.204L557.942 292.27H563.755L551.99 264.863H549.775L537.871 292.27H542.854L542.993 291.578C543.269 290.055 543.685 288.948 544.1 287.841L546.038 283.55ZM549.775 273.722H550.329C550.606 274.968 551.99 278.151 552.82 280.228H547.283C548.114 278.013 549.498 274.968 549.775 273.722Z" fill="white"/>
<path d="M722.927 283.55L726.664 292.27H732.478L720.712 264.863H718.498L706.594 292.27H711.577L711.715 291.578C711.992 290.055 712.407 288.948 712.823 287.841L714.76 283.55H722.927ZM718.498 273.722H719.051C719.328 274.968 720.712 278.151 721.543 280.228H716.006C716.837 278.013 718.221 274.968 718.498 273.722Z" fill="white"/>
<path d="M744.665 346.529C738.159 346.529 732.069 348.882 727.363 353.173V328.396H767.642V315.523H716.428V361.478L726.809 366.461L727.64 365.354C730.962 360.786 735.391 355.941 742.589 355.941C749.786 355.941 757.676 362.17 757.676 375.597C757.676 385.978 751.863 397.051 739.405 397.051C730.823 397.051 722.518 391.376 717.258 381.964L714.352 376.427V396.913L714.905 397.328C721.965 402.865 731.377 406.049 740.789 406.049C749.371 406.049 757.123 403.419 762.798 398.851C769.165 393.453 772.487 385.563 772.487 376.012C772.487 356.633 758.507 346.529 744.665 346.529Z" fill="white"/>
<path d="M752.554 272.752C752.554 268.184 748.679 265.139 742.727 265.139H733.176V292.269H738.712V281.472H738.989L748.955 292.269H755.738L747.018 283.133C746.187 282.302 745.633 281.61 744.664 280.78V280.641C749.371 280.088 752.554 276.766 752.554 272.752ZM740.789 277.735H738.712V268.461H740.789C744.803 268.461 746.879 269.983 746.879 272.89C746.879 274.274 746.325 277.735 740.789 277.735Z" fill="white"/>
<path d="M769.713 265.692C769.298 267.077 768.606 268.322 767.914 269.706L764.315 276.766L757.948 265.277L757.809 265.139H751.719L760.577 280.641V292.269H766.114V280.641L774.973 265.139H769.99L769.713 265.692Z" fill="white"/>
<path d="M517.521 145.545H498.004V260.432H517.521V145.545Z" fill="white"/>
<path d="M590.47 191.362L588.532 191.778C584.518 192.608 579.95 193.023 574.552 193.023H553.789V158.834H586.317V150.391H553.789V120.631H573.86C579.258 120.631 583.964 121.046 587.978 121.877L589.916 122.292V112.188H537.871V201.467H590.47V191.362Z" fill="white"/>
<path d="M607.216 251.16C607.216 248.253 605.831 245.762 603.34 244.516C605.555 243.27 606.8 240.917 606.8 238.287C606.8 233.166 602.648 230.812 598.495 230.812C595.865 230.812 593.097 231.643 590.744 233.719V241.055C593.789 235.519 595.865 234.273 597.942 234.273C600.572 234.273 601.402 236.488 601.402 238.425C601.402 240.086 600.572 242.993 597.388 242.993H595.173V246.315H597.526C600.848 246.315 601.817 249.222 601.817 251.021C601.817 252.959 600.848 255.312 598.08 255.312C595.727 255.312 593.512 253.928 590.605 247.561V255.866C592.543 257.804 595.589 258.773 598.357 258.773C602.786 258.773 607.216 256.42 607.216 251.16Z" fill="white"/>
<path d="M586.592 292.408V265.14H582.163L582.301 266.247C582.578 267.493 582.716 268.877 582.716 270.262L582.855 283.134L567.075 265.002L566.937 264.863H564.445V292.27H569.151L568.736 291.024C568.459 290.055 568.459 288.81 568.459 287.564L568.183 274.553L584.101 292.408H586.592Z" fill="white"/>
<path d="M459.661 240.775C471.842 236.207 479.87 224.58 479.87 211.569C479.87 202.018 475.441 180.01 434.469 180.01H395.297V309.43H435.576C453.571 309.43 467.136 305.278 475.994 296.973C485.13 288.391 486.514 278.009 486.514 272.473C486.514 264.445 483.884 257.108 478.763 251.433C474.195 246.312 467.689 242.713 459.661 240.775ZM416.752 190.53H429.348C447.619 190.53 457.723 198.419 457.723 212.953C457.723 227.487 447.896 236.761 430.593 236.761H416.752V190.53ZM431.424 298.634H416.752V247.142H430.593C442.774 247.142 451.771 249.495 457.308 254.34C461.876 258.493 464.367 264.445 464.367 272.196C464.367 289.775 453.294 298.634 431.424 298.634Z" fill="white"/>
<path d="M743.556 111.631L706.322 200.633L705.906 201.464H718.779L719.056 200.218C720.025 195.235 721.132 191.083 722.793 187.345L730.129 169.489H757.536L770.686 201.464H786.742L749.093 111.631H743.556ZM733.451 161.184L743.694 135.992L754.214 161.184H733.451Z" fill="white"/>
<path d="M834.084 250.604H814.013V145.545H794.496V260.432H854.293V248.528L852.355 248.943C847.095 250.05 841.143 250.604 834.084 250.604Z" fill="white"/>
<path d="M969.302 151.434C952.289 121.762 927.981 95.1469 897.053 72.3288C866.269 49.6172 830.452 31.7973 790.599 19.3605C749.425 6.51394 705.705 0 660.648 0C615.592 0 571.871 6.51394 530.699 19.3619C490.846 31.7973 455.03 49.6186 424.245 72.3302C393.315 95.1483 369.008 121.762 351.995 151.436C334.28 182.335 325.297 215.187 325.297 249.08C325.297 282.973 334.279 315.823 351.995 346.724C369.006 376.396 393.315 403.011 424.245 425.829C455.029 448.541 490.846 466.361 530.699 478.798C571.871 491.646 615.593 498.16 660.648 498.16C705.703 498.16 749.425 491.646 790.598 478.798C830.451 466.362 866.266 448.541 897.052 425.829C927.981 403.011 952.289 376.398 969.301 346.724C987.017 315.825 995.999 282.971 995.999 249.08C995.999 215.188 987.017 182.336 969.301 151.436L969.302 151.434ZM660.648 485.373C482.784 485.373 338.081 379.371 338.081 249.078C338.081 118.786 482.786 12.7843 660.648 12.7843C838.511 12.7843 983.216 118.786 983.216 249.078C983.216 379.371 838.512 485.373 660.648 485.373Z" fill="white"/>
<path d="M111.613 7.33984V20.1241H290.099L191.021 164.299L197.507 167.61C224.714 181.497 247.669 202.55 263.889 228.493C280.557 255.152 289.368 285.948 289.368 317.55C289.368 362.489 271.868 404.737 240.091 436.514C208.314 468.29 166.067 485.79 121.128 485.79C79.4628 485.79 39.485 470.444 8.5556 442.578L0 452.074C33.2812 482.06 76.2986 498.574 121.129 498.574C169.483 498.574 214.941 479.746 249.131 445.554C283.322 411.363 302.152 365.904 302.152 317.552C302.152 283.55 292.669 250.411 274.73 221.717C258.571 195.872 236.195 174.536 209.724 159.656L314.395 7.33984H111.613Z" fill="white"/>
</svg>
