<svg width="25" height="18" viewBox="0 0 25 18" fill="none" xmlns="http://www.w3.org/2000/svg">
<path d="M12.5 0.485352C15.8555 0.485352 18.8785 1.46917 21.0508 3.0332C23.224 4.59795 24.5146 6.71482 24.5146 9C24.5146 11.2852 23.224 13.402 21.0508 14.9668C18.8785 16.5308 15.8556 17.5146 12.5 17.5146C9.14444 17.5146 6.12151 16.5308 3.94922 14.9668C1.77596 13.402 0.485352 11.2852 0.485352 9C0.485352 6.71482 1.77595 4.59795 3.94922 3.0332C6.12152 1.46917 9.14446 0.485352 12.5 0.485352Z" fill="white" stroke="white" stroke-width="0.970365"/>
<path d="M6 5H8.35749C10.6157 5 12.0923 6.60061 12.0923 9.09459C12.0923 11.5762 10.6157 13.1892 8.35749 13.1892H6V5ZM7.47654 6.2656V11.9236H8.30786C9.69754 11.9236 10.5909 10.8441 10.5909 9.06978C10.5909 7.32027 9.69754 6.2656 8.30786 6.2656H7.47654Z" fill="#291E0F"/>
<path d="M15.3381 5H17.2489L19.7305 13.1892H18.2539L17.6832 11.1543H14.879L14.2834 13.1892H12.8565L15.3381 5ZM16.2811 6.35246H16.2563L15.2016 9.98796H17.3482L16.2811 6.35246Z" fill="#291E0F"/>
</svg>
