<svg width="26" height="18" viewBox="0 0 26 18" fill="none" xmlns="http://www.w3.org/2000/svg">
<path d="M6.5 5L8.85749 5C11.1157 5 12.5923 6.60061 12.5923 9.09459C12.5923 11.5762 11.1157 13.1892 8.85749 13.1892L6.5 13.1892L6.5 5ZM7.97654 6.2656L7.97654 11.9236H8.80786C10.1975 11.9236 11.0909 10.8441 11.0909 9.06978C11.0909 7.32027 10.1975 6.2656 8.80786 6.2656L7.97654 6.2656Z" fill="white"/>
<path d="M15.8381 5L17.7489 5L20.2305 13.1892L18.7539 13.1892L18.1832 11.1543L15.379 11.1543L14.7834 13.1892L13.3565 13.1892L15.8381 5ZM16.7811 6.35246H16.7563L15.7016 9.98796L17.8482 9.98796L16.7811 6.35246Z" fill="white"/>
<path d="M13 0.485352C16.3555 0.485352 19.3785 1.46917 21.5508 3.0332C23.724 4.59795 25.0146 6.71482 25.0146 9C25.0146 11.2852 23.724 13.402 21.5508 14.9668C19.3785 16.5308 16.3556 17.5146 13 17.5146C9.64444 17.5146 6.62151 16.5308 4.44922 14.9668C2.27596 13.402 0.985352 11.2852 0.985352 9C0.985352 6.71482 2.27595 4.59795 4.44922 3.0332C6.62152 1.46917 9.64446 0.485352 13 0.485352Z" stroke="white" stroke-width="0.970365"/>
</svg>
