<svg width="25" height="18" viewBox="0 0 25 18" fill="none" xmlns="http://www.w3.org/2000/svg">
<path d="M6.39844 5H10.766V6.2656H7.87497V8.43698H10.5799V9.66536H7.87497V11.9236H10.828V13.1892H6.39844V5Z" fill="white"/>
<path d="M17.071 5H18.4979V13.1892H16.8725L14.0187 7.39472H13.9815V13.1892H12.5918V5H14.1924L17.0214 10.7572H17.071V5Z" fill="white"/>
<path d="M12.5 0.485352C15.8555 0.485352 18.8785 1.46917 21.0508 3.0332C23.224 4.59795 24.5146 6.71482 24.5146 9C24.5146 11.2852 23.224 13.402 21.0508 14.9668C18.8785 16.5308 15.8556 17.5146 12.5 17.5146C9.14444 17.5146 6.12151 16.5308 3.94922 14.9668C1.77596 13.402 0.485352 11.2852 0.485352 9C0.485352 6.71482 1.77595 4.59795 3.94922 3.0332C6.12152 1.46917 9.14446 0.485352 12.5 0.485352Z" stroke="white" stroke-width="0.970365"/>
</svg>
