<svg width="26" height="19" viewBox="0 0 26 19" fill="none" xmlns="http://www.w3.org/2000/svg">
<path d="M13 0.985352C16.3555 0.985352 19.3785 1.96917 21.5508 3.5332C23.724 5.09795 25.0146 7.21482 25.0146 9.5C25.0146 11.7852 23.724 13.902 21.5508 15.4668C19.3785 17.0308 16.3556 18.0146 13 18.0146C9.64444 18.0146 6.62151 17.0308 4.44922 15.4668C2.27596 13.902 0.985352 11.7852 0.985352 9.5C0.985352 7.21482 2.27595 5.09795 4.44922 3.5332C6.62152 1.96917 9.64446 0.985352 13 0.985352Z" fill="white" stroke="white" stroke-width="0.970365"/>
<path d="M6.89844 5.5L11.266 5.5L11.266 6.7656L8.37497 6.7656L8.37497 8.93698L11.0799 8.93698V10.1654L8.37497 10.1654L8.37497 12.4236L11.328 12.4236L11.328 13.6892L6.89844 13.6892L6.89844 5.5Z" fill="#291E0F"/>
<path d="M17.571 5.5L18.9979 5.5L18.9979 13.6892L17.3725 13.6892L14.5187 7.89472H14.4815L14.4815 13.6892L13.0918 13.6892L13.0918 5.5L14.6924 5.5L17.5214 11.2572H17.571L17.571 5.5Z" fill="#291E0F"/>
</svg>
