<svg width="26" height="18" viewBox="0 0 26 18" fill="none" xmlns="http://www.w3.org/2000/svg">
<path d="M13 0.485352C16.3555 0.485352 19.3785 1.46917 21.5508 3.0332C23.724 4.59795 25.0146 6.71482 25.0146 9C25.0146 11.2852 23.724 13.402 21.5508 14.9668C19.3785 16.5308 16.3556 17.5146 13 17.5146C9.64444 17.5146 6.62151 16.5308 4.44922 14.9668C2.27596 13.402 0.985352 11.2852 0.985352 9C0.985352 6.71482 2.27595 4.59795 4.44922 3.0332C6.62152 1.46917 9.64446 0.485352 13 0.485352Z" stroke="white" stroke-width="0.970365"/>
<path d="M12 13V9.82353H14V13H16.5V8.76471H18L13 4L8 8.76471H9.5V13H12Z" fill="white"/>
</svg>
